{"title":"X-Men Apocalypse (2016) HDCam Hindi Dubbed x264 AAC","uid":14674461,"size":734131252,"categoryP":"video","categoryS":"movies","magnet":"?xt=urn:btih:45524c2df53226eb38558774f3de91420a9229f0&amp;dn=X-Men+Apocalypse+%282016%29+HDCam+Hindi+Dubbed+x264+AAC+&amp;tr=udp%3A%2F%2Ftracker.leechers-paradise.org%3A6969&amp;tr=udp%3A%2F%2Fzer0day.ch%3A1337&amp;tr=udp%3A%2F%2Fopen.demonii.com%3A1337&amp;tr=udp%3A%2F%2Ftracker.coppersurfer.tk%3A6969&amp;tr=udp%3A%2F%2Fexodus.desync.com%3A6969","seeders":0,"leechers":1,"uploader":"loverulz","files":1,"time":1463920879,"description":"General\r\nComplete name : X-Men Apocalypse (2016) HDCam Hindi Dubbed x264 AAC\r\nFormat : Matroska\r\nFormat version : Version 4 / Version 2\r\nFile size : 700 MiB\r\nDuration : 2h 8mn\r\nOverall bit rate : 660 Kbps\r\n\r\nVideo\r\nID : 1\r\nFormat : AVC\r\nFormat/Info : Advanced Video Codec\r\nFormat profile :   \r\nFormat settings, CABAC : Yes\r\nFormat settings, ReFrames : 4 frames\r\nCodec ID : V_MPEG4/ISO/AVC\r\nDuration : 2h 8mn\r\nBit rate : 575 Kbps\r\nWidth : 672 pixels\r\nHeight : 288 pixels\r\nDisplay aspect ratio : 2.35:1\r\nFrame rate mode : Variable\r\nFrame rate : 30.000 fps\r\nColor space : YUV\r\nChroma subsampling : 4:2:0\r\nBit depth : 8 bits\r\nScan type : Progressive\r\nBits/(Pixel*Frame) : 0.099\r\nStream size : 528 MiB (81%)\r\n\r\nAudio\r\nID : 2\r\nFormat : AAC\r\nFormat/Info : Advanced Audio Codec\r\nFormat profile : HE-AAC / LC\r\nCodec ID : A_AAC\r\nDuration : 2h 28mn\r\nBit rate : 80.0 Kbps\r\nChannel(s) : 2 channels\r\nChannel positions : Front: L R\r\nSampling rate : 48.0 KHz / 24.0 KHz\r\nFrame rate : 23.438 fps (1024 spf)\r\nCompression mode : Lossy\r\nDelay relative to video : 31ms\r\nStream size : 84.9 MiB (12%)\r\nLanguage : Hindi","torrent":{"xt":"urn:btih:45524c2df53226eb38558774f3de91420a9229f0","amp;dn":"X-Men+Apocalypse+%282016%29+HDCam+Hindi+Dubbed+x264+AAC+","amp;tr":["udp%3A%2F%2Ftracker.leechers-paradise.org%3A6969","udp%3A%2F%2Fzer0day.ch%3A1337","udp%3A%2F%2Fopen.demonii.com%3A1337","udp%3A%2F%2Ftracker.coppersurfer.tk%3A6969","udp%3A%2F%2Fexodus.desync.com%3A6969"],"infoHash":"45524c2df53226eb38558774f3de91420a9229f0","infoHashBuffer":{"type":"Buffer","data":[69,82,76,45,245,50,38,235,56,85,135,116,243,222,145,66,10,146,41,240]},"announce":[],"urlList":[]}}